<?xml version="1.0" encoding="utf-8"?>
<!-- Generator: Adobe Illustrator 21.0.0, SVG Export Plug-In . SVG Version: 6.00 Build 0)  -->
<svg version="1.1" id="Capa_1" xmlns="http://www.w3.org/2000/svg" xmlns:xlink="http://www.w3.org/1999/xlink" x="0px" y="0px"
	 viewBox="0 0 115 115" style="enable-background:new 0 0 115 115;" xml:space="preserve">
<style type="text/css">
	.st0{fill:#000004;}
</style>
<title>close</title>
<g>
	<g>
		<path class="st0" d="M57.5,3.2c29.9,0,54.3,24.4,54.3,54.3c0,29.9-24.4,54.3-54.3,54.3S3.2,87.4,3.2,57.5
			C3.2,27.6,27.6,3.2,57.5,3.2z M57.5,104.9c26.1,0,47.4-21.3,47.4-47.4c0-26.1-21.3-47.4-47.4-47.4S10.1,31.4,10.1,57.5
			C10.1,83.6,31.4,104.9,57.5,104.9z"/>
	</g>
</g>
<g>
	<path d="M30.4,57.5c0-2.9,2.3-5.2,5.2-5.2H68L51.8,36.1c-2-2-2-5.3,0-7.3c1-1,2.3-1.5,3.7-1.5c1.3,0,2.7,0.5,3.7,1.5l25.1,25.1
		c1,1,1.5,2.3,1.5,3.7c0,1.4-0.5,2.7-1.5,3.7L59.1,86.2c-2,2-5.3,2-7.3,0c-2-2-2-5.3,0-7.3L68,62.7H35.6
		C32.7,62.7,30.4,60.4,30.4,57.5z"/>
</g>
</svg>
