<svg id="Capa_1" data-name="Capa 1" xmlns="http://www.w3.org/2000/svg" viewBox="0 0 136 136"><defs><style>.cls-1,.cls-3{fill:#fff;}.cls-1{stroke:#000;stroke-linejoin:round;stroke-width:5px;}.cls-2{fill:#ffa000;}</style></defs><title>gluten</title><path class="cls-1" d="M150.48,86.64" transform="translate(-32.5 -26.5)"/><circle class="cls-2" cx="68" cy="68" r="65"/><path d="M100.5,162.5a68,68,0,1,1,68-68A68.08,68.08,0,0,1,100.5,162.5Zm0-130a62,62,0,1,0,62,62A62.07,62.07,0,0,0,100.5,32.5Z" transform="translate(-32.5 -26.5)"/><polygon class="cls-3" points="82 33 82 53 102 53 63 93 43 93 43 72 82 33"/><path d="M139.83,73.09l-5,5H119.27l21.27-21.54-1.42-1.4h0l-1.42-1.41L116.67,75V59.91l5-5-2.83-2.83L72.37,98.55v21.33L58.69,133.73l2.85,2.81,14-14.16H96.19l46.47-46.46Zm-36.59.25,9.43-9.43V79.07l-9.43,9.55ZM89.8,86.78l9.44-9.44V92.67l-9.44,9.56ZM76.37,100.21l9.43-9.43v15.5l-9.43,9.55Zm18.17,18.17H79.47L88.79,109H104ZM108,105H92.74l9.32-9.44h15.35Zm13.44-13.44H106l9.31-9.43h15.52Z" transform="translate(-32.5 -26.5)"/></svg>