<svg id="Capa_1" data-name="Capa 1" xmlns="http://www.w3.org/2000/svg" viewBox="0 0 136 136"><defs><style>.cls-1{fill:#ffd200;}.cls-2{fill:#fff;}</style></defs><title>huevo</title><circle class="cls-1" cx="68" cy="68" r="65"/><path d="M68,136a68,68,0,1,1,68-68A68,68,0,0,1,68,136ZM68,6a62,62,0,1,0,62,62A62,62,0,0,0,68,6Z"/><path class="cls-2" d="M96.5,74.4c0,15.37-12.46,29.71-27.83,29.71S40.88,89.77,40.88,74.4c0-25,10.38-47.64,27.83-47.64C87.11,26.76,96.5,49.4,96.5,74.4Z"/><path d="M68.71,106C52.88,106,39,91.23,39,74.4c0-24.61,10.21-49.52,29.71-49.52,20.53,0,29.71,24.87,29.71,49.52C98.43,91.23,84.5,106,68.71,106Zm0-77.35c-16.85,0-25.94,23.57-25.94,45.75,0,14.82,12.12,27.83,25.94,27.83s25.94-13,25.94-27.83C94.65,52.36,86.5,28.65,68.71,28.65Z"/><path d="M58.92,93.41A25.13,25.13,0,0,1,49,73.65"/><path d="M58.92,95.29a1.88,1.88,0,0,1-1.13-.38,27.12,27.12,0,0,1-10.7-21.27,1.89,1.89,0,1,1,3.77,0,23.27,23.27,0,0,0,9.2,18.25,1.89,1.89,0,0,1-1.13,3.4Z"/></svg>