<?xml version="1.0" encoding="utf-8"?>
<!-- Generator: Adobe Illustrator 21.0.0, SVG Export Plug-In . SVG Version: 6.00 Build 0)  -->
<svg version="1.1" id="Capa_1" xmlns="http://www.w3.org/2000/svg" xmlns:xlink="http://www.w3.org/1999/xlink" x="0px" y="0px"
	 viewBox="0 0 277.9 229.9" style="enable-background:new 0 0 277.9 229.9;" xml:space="preserve">
<style type="text/css">
	.st0{fill:#FFFFFF;}
</style>
<title>logo</title>
<path class="st0" d="M238.9,171.6c-31.3,55.3-101.4,74.7-156.7,43.4C64,204.7,49,189.7,38.7,171.6h10.6l0.7,1.1l0.4,0.6
	c0.4,0.7,0.9,1.3,1.3,1.9l0.3,0.5l0.8,1.1l0.4,0.6c0.4,0.6,0.9,1.2,1.3,1.7l0.5,0.6l0.8,1l0.6,0.7l1.2,1.5l0.6,0.7l0.8,0.9l0.8,0.9
	l1.1,1.2l0.7,0.7l0.8,0.8l1.2,1.2l0.8,0.8l0.8,0.7l1,1l1,1l0.8,0.7l0.9,0.8l1.1,0.9l1,0.9l0.8,0.6l1.2,1l0.9,0.7l1.1,0.8l0.8,0.6
	l1.5,1.1l0.7,0.5l1.2,0.8l0.7,0.5l1.7,1l0.7,0.4l1.3,0.8l0.7,0.4l1.7,1l0.7,0.4l1.4,0.8l0.6,0.3l1.7,0.9l0.7,0.4l1.8,0.9l0.5,0.2
	l1.7,0.8l0.7,0.3l1.9,0.9l0.5,0.2l1.6,0.7l0.6,0.2l2,0.8l0.5,0.2l1.8,0.6l0.5,0.2l2.1,0.7l0.6,0.2l1.9,0.6l0.3,0.1l2.2,0.6l0.6,0.1
	l2.2,0.5h0.2l2.1,0.5l0.6,0.1l2.2,0.4l0.4,0.1l2,0.3l0.6,0.1l2.3,0.3l0.4,0.1l2.1,0.2h0.4l2.3,0.2h0.5l2.2,0.1h0.3l2.4,0.1h0.6
	c0.8,0,1.6,0,2.4,0s1.6,0,2.4,0h0.6l2.4-0.1h0.3l2.2-0.1h0.5l2.3-0.2h0.4l2.1-0.2l0.5,0l2.3-0.3l0.6-0.1l2-0.3l0.4-0.1l2.2-0.4
	l0.6-0.1l2.1-0.5h0.1l2.2-0.5l0.6-0.1l2.2-0.6l0.4-0.1l1.9-0.6l0.6-0.2l2.1-0.7l0.5-0.2l1.8-0.6l0.6-0.2l2-0.8l0.6-0.3l1.6-0.7
	l0.5-0.2l1.9-0.9l0.6-0.3l1.6-0.8l0.5-0.3l1.8-0.9l0.7-0.4l1.7-0.9l0.6-0.3l1.4-0.8l0.7-0.4l1.7-1l0.6-0.4l1.3-0.8l0.7-0.4l1.6-1.1
	l0.7-0.5l1.1-0.8l0.7-0.5l1.5-1.1l0.8-0.6l1.1-0.8l1-0.8l1.1-0.9l0.8-0.7l1-0.8l1.1-1l0.9-0.8l0.8-0.7l1-0.9l1.1-1.1l0.7-0.7
	l0.8-0.8l1.2-1.2l0.8-0.8l0.7-0.7l1.2-1.3l0.7-0.8l0.8-0.9l0.6-0.7l1.2-1.5l0.6-0.7l0.8-1l0.5-0.6c0.4-0.6,0.9-1.1,1.3-1.7l0.4-0.6
	l0.8-1.1l0.4-0.5c0.4-0.7,0.9-1.3,1.3-1.9l0.4-0.6l0.7-1.1L238.9,171.6z M138.8,0c63.5,0,115,51.5,115,115c0,0.3,0,0.6,0,0.8h-9.1
	c0-0.2,0-0.4,0-0.6C245.3,56.8,198.3,8.9,139.9,8.4S33.5,54.7,33,113.2c0,0.7,0,1.4,0,2.1c0,0.2,0,0.4,0,0.6h-9.1c0-0.3,0-0.6,0-0.8
	C23.9,51.5,75.3,0,138.8,0z"/>
<path class="st0" d="M238.9,171.6c-31.3,55.3-101.4,74.7-156.7,43.4C64,204.7,49,189.7,38.7,171.6h10.6l0.7,1.1l0.4,0.6
	c0.4,0.7,0.9,1.3,1.3,1.9l0.3,0.5l0.8,1.1l0.4,0.6c0.4,0.6,0.9,1.2,1.3,1.7l0.5,0.6l0.8,1l0.6,0.7l1.2,1.5l0.6,0.7l0.8,0.9l0.8,0.9
	l1.1,1.2l0.7,0.7l0.8,0.8l1.2,1.2l0.8,0.8l0.8,0.7l1,1l1,1l0.8,0.7l0.9,0.8l1.1,0.9l1,0.9l0.8,0.6l1.2,1l0.9,0.7l1.1,0.8l0.8,0.6
	l1.5,1.1l0.7,0.5l1.2,0.8l0.7,0.5l1.7,1l0.7,0.4l1.3,0.8l0.7,0.4l1.7,1l0.7,0.4l1.4,0.8l0.6,0.3l1.7,0.9l0.7,0.4l1.8,0.9l0.5,0.2
	l1.7,0.8l0.7,0.3l1.9,0.9l0.5,0.2l1.6,0.7l0.6,0.2l2,0.8l0.5,0.2l1.8,0.6l0.5,0.2l2.1,0.7l0.6,0.2l1.9,0.6l0.3,0.1l2.2,0.6l0.6,0.1
	l2.2,0.5h0.2l2.1,0.5l0.6,0.1l2.2,0.4l0.4,0.1l2,0.3l0.6,0.1l2.3,0.3l0.4,0.1l2.1,0.2h0.4l2.3,0.2h0.5l2.2,0.1h0.3l2.4,0.1h0.6
	c0.8,0,1.6,0,2.4,0s1.6,0,2.4,0h0.6l2.4-0.1h0.3l2.2-0.1h0.5l2.3-0.2h0.4l2.1-0.2l0.5,0l2.3-0.3l0.6-0.1l2-0.3l0.4-0.1l2.2-0.4
	l0.6-0.1l2.1-0.5h0.1l2.2-0.5l0.6-0.1l2.2-0.6l0.4-0.1l1.9-0.6l0.6-0.2l2.1-0.7l0.5-0.2l1.8-0.6l0.6-0.2l2-0.8l0.6-0.3l1.6-0.7
	l0.5-0.2l1.9-0.9l0.6-0.3l1.6-0.8l0.5-0.3l1.8-0.9l0.7-0.4l1.7-0.9l0.6-0.3l1.4-0.8l0.7-0.4l1.7-1l0.6-0.4l1.3-0.8l0.7-0.4l1.6-1.1
	l0.7-0.5l1.1-0.8l0.7-0.5l1.5-1.1l0.8-0.6l1.1-0.8l1-0.8l1.1-0.9l0.8-0.7l1-0.8l1.1-1l0.9-0.8l0.8-0.7l1-0.9l1.1-1.1l0.7-0.7
	l0.8-0.8l1.2-1.2l0.8-0.8l0.7-0.7l1.2-1.3l0.7-0.8l0.8-0.9l0.6-0.7l1.2-1.5l0.6-0.7l0.8-1l0.5-0.6c0.4-0.6,0.9-1.1,1.3-1.7l0.4-0.6
	l0.8-1.1l0.4-0.5c0.4-0.7,0.9-1.3,1.3-1.9l0.4-0.6l0.7-1.1L238.9,171.6z M138.8,0c63.5,0,115,51.5,115,115c0,0.3,0,0.6,0,0.8h-9.1
	c0-0.2,0-0.4,0-0.6C245.3,56.8,198.3,8.9,139.9,8.4S33.5,54.7,33,113.2c0,0.7,0,1.4,0,2.1c0,0.2,0,0.4,0,0.6h-9.1c0-0.3,0-0.6,0-0.8
	C23.9,51.5,75.3,0,138.8,0z"/>
<path class="st0" d="M95.9,42.3c-0.2-1.7,1.2-1.6,2.1-0.6L111.2,59c-0.1,4.3-7.2-6.2-7.7-6.9C102.8,51.1,96,42.5,95.9,42.3
	 M92.1,45.3c1.6-0.4,1.4,0.1,2.5,1.2l9.8,11.2c1.1,1.5,3.8,3.3,3.3,5c-1.7,0.5-1.2,0.1-2.3-1.2l-7.7-8.9
	C95.9,50.6,91.6,46.9,92.1,45.3L92.1,45.3z M104.6,65.6c-1.5,0.1-1.6-0.4-2.4-1.4l-6.5-6.6c-1.4-1.3-2.9-3-4.2-4.5
	c-1.8-2-4.1-3.8-2.8-4.5s3.5,2.6,4.2,3.5c1.4,1.6,3,2.6,4.5,4.2l6.3,6.8C104.7,64.2,105.1,63.9,104.6,65.6L104.6,65.6z M84.2,52.4
	c2.4-0.5,1.7,0.6,4.9,3.2L100.3,66c0.7,0.6,2.1,1.4,1.1,2.4c-1.4,1.5-7.2-5.5-9.1-7.1c-3.4-2.8-2.4-2.3-4.5-4.2
	C85.4,54.9,83.4,54.3,84.2,52.4z M117.4,61.7c-1-4.4-8.4-13.3-11.1-17.4c-8.4-12.8-7.7-10-13.5-5.1c-1.8,1.6-3.4,3.3-5.2,4.7
	s-3.4,3.2-5.2,4.7c-7,6-4.9,6.3-1.2,9.5l10.9,9.3c1.3,1.1,2.7,2.2,3.9,3.2C107.2,80.3,119.9,73.1,117.4,61.7z"/>
<path class="st0" d="M106.1,73.1c1.9-0.9,3.7-1.3,5.3-2.6c1.5-1.4,2.6-3,3.4-4.8C114.5,70.2,111,73,106.1,73.1"/>
<path class="st0" d="M138.2,94.1c-2.5-2.9-5.8-5.8-8.3-8.4c-4-3.9-7.9-8.1-12-11.8c-0.8-0.7-0.2-0.3-1-0.8c-1.3,0.7-2.3,1.8-2.9,3.1
	c1.5,0.8,13.5,15.5,15.3,17.6c1.2,1.7,3.1,3.2,4,4.8c-0.9,1.6-4.3,4.1-5.8,5.7c-5.2,5.4-0.7,8.1,1.1,8.4c4.4,0.5,6.7-5.4,9.8-7.9
	l3.6,4.3c0.2,0.1,0.4,0.3,0.6,0.4l1.5,1.6c3,3.4,7.2,1,7.1-2.6c-0.1-3.2-6-6.9-7.7-9.5c1.7-2.1,3.6-4.2,5.6-6.3L165.4,74
	c-0.8-1.2-1.8-2.2-3-3c-0.6,0.4-0.2,0.2-0.7,0.6C154.1,78.8,145.1,86.2,138.2,94.1 M128.3,108c-0.1-0.8,0.5-1.5,1.3-1.5
	c0.7,0,1.4,0.4,1.5,1.2c0,0.8-0.6,1.4-1.4,1.5C129.1,109.1,128.5,108.7,128.3,108L128.3,108z M146.7,107c2.6-0.1,2.1,2.1,1.4,2.6
	c-0.5,0.3-1,0.4-1.6,0.2c-0.5-0.1-0.7-0.3-0.9-1C145.4,108.1,145.7,107.1,146.7,107L146.7,107z"/>
<path class="st0" d="M134.2,36.7C130.3,45,139.9,45,137,53c-0.8,2.4-2.5,4.4-4.7,5.7c1.4-8-5.9-12.2-5.9-10.3l0.4,0.3
	c1.2,1.5,1.1,3.4,0.6,5.2c-0.6,1.7-1.4,3.2-2.5,4.7c-3.2,5.2-3,10.8,2.5,14c1.4,0.9,2.9,1.5,4.6,1.8v-0.6c-1.9-1.5-3.3-3.5-4-5.8
	c1.7,0.7,3.1,2.6,5.6,3.2c4,1,4.5-0.9,5.8-3.2c2.8,6.7,8.2,0.7,10.6-0.3c-0.3,1.9-3.7,5.9-4.8,6.4l1.8-0.6c2.4-0.7,4.5-2.3,5.9-4.3
	c4.7-5.5,3.1-15.6-4.2-15.3c0.3,0.8,4.4,6.1-0.3,9.2c-2,1.3-6.8,1.9-4.8-6.4c2.7-11.2-5.9-14.5-6.7-19.5l-0.1-1.6l0.1-0.8l0.6-1.1
	C136.1,34.4,134.9,35.5,134.2,36.7"/>
<path class="st0" d="M194.8,53.2c2.2-2,4.1-4.8,5.1-5.6c-0.7,0.1-5.4,4.3-8,5.9c-2.2,1.4-7.5,4.6-10.9,3.2
	c-7.3-3.2,4.3-17.1,7.3-21.3l-2.9,2.1l-6.1,7.2c-2.4,3-6.3,9.3-6.6,13.6c-0.3,3.8,0.5,2.5-1.9,4.8c-1.8,1.7-5.2,4.8-6.5,6.8l2.5,2.2
	c2.3-2.3,4.8-4.4,6.9-6.9c2.9-3.5,3.4-0.3,9.8-3.6c0.9-0.5,1.8-1,2.7-1.6C189.3,57.8,192.1,55.6,194.8,53.2"/>
<path class="st0" d="M147.6,78.5c-1.5,1.1-5.6,3.4-8.5,3.4c-3.9,0.1-10.3-5.4-13.4-6.5c-1.3,1.1,10.9,11.7,12.5,13L152.6,76
	L147.6,78.5z"/>
<path class="st0" d="M214.5,103.1c0,0.1,0.1,0.2,0.2,0.2c0,0,0,0,0,0h8.6c0.1,0,0.2-0.1,0.2-0.2c0,0,0,0,0,0v-2.6
	c0-0.1-0.1-0.2-0.2-0.2c0,0,0,0,0,0H218c-0.1,0-0.1,0-0.1-0.1c0,0,0,0,0,0v-9.5c0-0.1-0.1-0.2-0.2-0.2c0,0,0,0,0,0h-2.9
	c-0.1,0-0.2,0.1-0.2,0.2c0,0,0,0,0,0V103.1z M204.1,103.1c0,0.1,0.1,0.2,0.2,0.2c0,0,0,0,0,0h8.6c0.1,0,0.2-0.1,0.2-0.2c0,0,0,0,0,0
	v-2.6c0-0.1-0.1-0.2-0.2-0.2c0,0,0,0,0,0h-5.4c-0.1,0-0.1,0-0.1-0.1c0,0,0,0,0,0v-9.5c0-0.1-0.1-0.2-0.2-0.2c0,0,0,0,0,0h-2.9
	c-0.1,0-0.2,0.1-0.2,0.2c0,0,0,0,0,0L204.1,103.1z M198.8,103.1c0,0.1,0.1,0.2,0.2,0.2c0,0,0,0,0,0h2.9c0.1,0,0.2-0.1,0.2-0.2
	c0,0,0,0,0,0V90.7c0-0.1-0.1-0.2-0.2-0.2c0,0,0,0,0,0h-2.9c-0.1,0-0.2,0.1-0.2,0.2c0,0,0,0,0,0V103.1z M192.1,96.1h-1.8
	c-0.1,0-0.1,0-0.1-0.1c0,0,0,0,0,0v-2.5c0-0.1,0-0.1,0.1-0.1c0,0,0,0,0,0h1.8c0.7-0.1,1.4,0.5,1.5,1.2c0.1,0.7-0.5,1.4-1.2,1.5
	C192.3,96.1,192.2,96.1,192.1,96.1L192.1,96.1z M197,103.3c0.1,0,0.1,0,0.2-0.1c0,0,0-0.1,0-0.1l-2.4-4.9c1.3-0.7,2.2-2.1,2.1-3.6
	c0-2.4-1.7-4.1-4.6-4.1h-5.2c-0.1,0-0.2,0.1-0.2,0.2c0,0,0,0,0,0v12.4c0,0.1,0.1,0.2,0.2,0.2c0,0,0,0,0,0h2.9c0.1,0,0.2-0.1,0.2-0.2
	c0,0,0,0,0,0v-4.3c0-0.1,0-0.1,0.1-0.1c0,0,0,0,0,0h1.2l1.9,4.4c0,0.1,0.2,0.2,0.3,0.2H197z M175.2,100.4c1.1,2.6,4.2,3.9,6.8,2.7
	c1.3-0.5,2.3-1.6,2.8-2.8c0.3-1,0.4-2,0.3-3v-1c0-0.1-0.1-0.2-0.2-0.2c0,0,0,0,0,0h-4.5c-0.1,0-0.2,0.1-0.2,0.2c0,0,0,0,0,0v2.1
	c0,0.1,0.1,0.2,0.2,0.2c0,0,0,0,0,0h1.4c0.1,0,0.1,0,0.1,0.1c0,0,0,0,0,0c0,0.3,0,0.6-0.1,0.8c-0.3,0.7-1,1.1-1.7,1
	c-0.8,0.1-1.5-0.4-1.8-1.1c-0.2-0.8-0.2-1.7-0.2-2.5c-0.1-0.9,0-1.7,0.2-2.5c0.2-0.7,0.9-1.2,1.6-1.1c0.8-0.1,1.5,0.3,1.8,1
	c0.1,0.1,0.2,0.1,0.3,0.1l2.4-1c0.1,0,0.2-0.2,0.1-0.3c0,0,0,0,0,0c-1.4-2.6-4.6-3.5-7.2-2.1c-1,0.6-1.8,1.4-2.3,2.5
	c-0.3,1.1-0.4,2.3-0.4,3.5C174.8,98,174.9,99.3,175.2,100.4L175.2,100.4z M161.2,99.8c0-0.5,0.2-0.9,1-1.6l1.6,2.1
	c-0.4,0.4-0.9,0.7-1.5,0.7c-0.6,0-1.2-0.4-1.2-1C161.2,99.9,161.2,99.9,161.2,99.8L161.2,99.8z M162.8,94.7c-0.6-0.7-0.7-1-0.7-1.3
	c0-0.5,0.3-0.9,0.7-0.9c0.5,0,0.9,0.3,0.9,0.7c0,0.1,0,0.1,0,0.2C163.7,93.8,163.5,94.1,162.8,94.7L162.8,94.7z M158.4,100.1
	c0,2.1,1.4,3.5,3.8,3.5c1.2,0,2.4-0.4,3.3-1.3c0.5,0.7,1.3,1.1,2.1,1.1h1c0.1,0,0.2-0.1,0.2-0.2c0,0,0,0,0,0V101
	c0-0.1-0.1-0.2-0.2-0.2c0,0,0,0,0,0h-0.3c-0.3,0-0.6-0.1-0.7-0.4l-0.2-0.2l1.5-1.8c0.1-0.1,0.1-0.2,0-0.2c0,0,0,0,0,0l-1.6-1.3
	c-0.1-0.1-0.2-0.1-0.2,0c0,0,0,0,0,0l-1.2,1.4l-1.4-1.7c1.5-1.2,2.1-2,2.1-3.2c0-1.8-1.4-3.1-3.6-3.1c-1.8-0.2-3.4,1.2-3.6,3
	c0,0.1,0,0.1,0,0.2c0.1,1.1,0.6,2.1,1.3,2.9C159,97.6,158.3,98.7,158.4,100.1L158.4,100.1z"/>
<path class="st0" d="M95.1,95.9h-1.8c-0.1,0-0.1,0-0.1-0.1c0,0,0,0,0,0v-2.5c0-0.1,0-0.1,0.1-0.1c0,0,0,0,0,0h1.8
	c0.7-0.1,1.4,0.5,1.5,1.2c0.1,0.7-0.5,1.4-1.2,1.5C95.2,95.9,95.1,95.9,95.1,95.9 M100,103.1c0.1,0,0.1,0,0.2-0.1c0,0,0-0.1,0-0.1
	L97.8,98c1.3-0.7,2.2-2.1,2.1-3.6c0-2.4-1.7-4.1-4.6-4.1h-5.2c-0.1,0-0.2,0.1-0.2,0.2c0,0,0,0,0,0v12.4c0,0.1,0.1,0.2,0.2,0.2
	c0,0,0,0,0,0H93c0.1,0,0.2-0.1,0.2-0.2c0,0,0,0,0,0v-4.3c0-0.1,0-0.1,0.1-0.1c0,0,0,0,0,0h1.2l1.9,4.4c0,0.1,0.2,0.2,0.3,0.2
	L100,103.1z M81.3,98.2l1.2-4h0.1l1.2,4H81.3z M76.4,102.9c0,0.1,0,0.1,0.1,0.2c0,0,0,0,0.1,0h3.1c0.1,0,0.2-0.1,0.2-0.2l0.6-2h4.2
	l0.6,2c0,0.1,0.1,0.2,0.2,0.2h3.1c0.1,0,0.1,0,0.1-0.1c0,0,0-0.1,0-0.1l-4.3-12.4c0-0.1-0.1-0.2-0.2-0.2h-3c-0.1,0-0.2,0.1-0.2,0.2
	L76.4,102.9z M69.2,100.5v-2.7c0-0.1,0-0.1,0.1-0.1c0,0,0,0,0,0h1.5c1,0,1.6,0.5,1.6,1.4s-0.5,1.4-1.6,1.4h-1.5
	C69.2,100.6,69.2,100.6,69.2,100.5C69.2,100.5,69.2,100.5,69.2,100.5L69.2,100.5z M69.3,95.5c-0.1,0-0.1,0-0.1-0.1c0,0,0,0,0,0v-2.5
	c0-0.1,0-0.1,0.1-0.1c0,0,0,0,0,0h1.3c1,0,1.5,0.4,1.5,1.3s-0.5,1.3-1.5,1.3L69.3,95.5z M65.9,102.9c0,0.1,0.1,0.2,0.2,0.2
	c0,0,0,0,0,0h5.2c2.7,0,4.4-1.2,4.4-3.7c0.1-1.2-0.6-2.4-1.8-2.9l0,0c1-0.5,1.6-1.6,1.5-2.8c0-2-1.3-3.4-4.2-3.4h-5.2
	c-0.1,0-0.2,0.1-0.2,0.2c0,0,0,0,0,0V102.9z"/>
<path class="st0" d="M257.8,154.3l-0.9,2.5c-0.8,2.2-2.2,3.3-4,3.3c-1.5,0.1-3-0.5-4-1.7c-0.7-0.9-1.1-2-1.2-3.1
	c0-0.9,0.2-1.9,0.6-2.7l10-21.8c1-2.2,2.5-3.3,4.6-3.3c2,0,3.6,1.1,4.6,3.3l10,21.8c0.4,0.9,0.6,1.8,0.6,2.7
	c-0.1,1.1-0.5,2.2-1.2,3.1c-1,1.2-2.5,1.9-4,1.7c-1.9,0-3.3-1.1-4.1-3.3l-0.9-2.5H257.8z M264.8,146.5l-2.1-5.7l-2.1,5.7H264.8z
	 M241.5,160h-12.3c-3.2,0-4.8-1.4-4.8-4.2v-24.3c0-2.8,1.6-4.2,4.8-4.2c3.2,0,4.8,1.4,4.8,4.2v20.8h7.5c2,0,3,1.3,3,3.9
	C244.5,158.7,243.5,160,241.5,160L241.5,160z M217,160h-12.3c-3.2,0-4.8-1.4-4.8-4.2v-24.3c0-2.8,1.6-4.2,4.8-4.2
	c3.2,0,4.8,1.4,4.8,4.2v20.8h7.5c2,0,3,1.3,3,3.9C220,158.7,219,160,217,160L217,160z M194.9,155.8c0,2.8-1.6,4.2-4.8,4.2
	s-4.8-1.4-4.8-4.2v-24.3c0-2.8,1.6-4.2,4.8-4.2c3.2,0,4.8,1.4,4.8,4.2V155.8z M165.9,134v7.4h2.8c2.7,0,4.1-1.2,4.1-3.7
	c0-2.5-1.4-3.7-4.1-3.7H165.9z M176.4,146.1l4.8,6.3c0.7,0.9,1.1,1.9,1.1,3c-0.1,1.3-0.8,2.4-1.9,3.1c-1,0.9-2.2,1.4-3.6,1.5
	c-1.3-0.1-2.4-0.9-3.1-2l-7.8-10.4v8.2c0,2.8-1.6,4.2-4.8,4.2s-4.8-1.4-4.8-4.2v-24.2c0-2.8,1.6-4.2,4.8-4.2H172
	c2.6,0,5,1.1,6.7,3.1c1.7,1.8,2.6,4.2,2.7,6.6C181.3,141.3,179.7,144.3,176.4,146.1z M136,133.9v7.4h2.8c2.7,0,4.1-1.2,4.1-3.7
	c0-2.5-1.4-3.7-4.1-3.7H136z M146.4,146.1l4.8,6.3c0.7,0.9,1.1,1.9,1.1,3c-0.1,1.3-0.8,2.4-1.9,3.1c-1,0.9-2.2,1.4-3.6,1.5
	c-1.3-0.1-2.4-0.9-3.1-2l-7.8-10.4v8.2c0,2.8-1.6,4.2-4.8,4.2s-4.8-1.4-4.8-4.2v-24.2c0-2.8,1.6-4.2,4.8-4.2H142
	c2.6,0,5,1.1,6.7,3.1c1.7,1.8,2.6,4.2,2.7,6.6C151.4,141.3,149.7,144.3,146.4,146.1z M102.2,154.3l-0.9,2.5c-0.8,2.2-2.2,3.3-4,3.3
	c-1.5,0.1-3-0.5-4-1.7c-0.7-0.9-1.1-2-1.2-3.1c0-0.9,0.2-1.9,0.6-2.7l10-21.8c1-2.2,2.5-3.3,4.6-3.3s3.6,1.1,4.6,3.3l10,21.8
	c0.4,0.9,0.6,1.8,0.6,2.7c-0.1,1.1-0.5,2.2-1.2,3.1c-1,1.2-2.5,1.9-4.1,1.7c-1.9,0-3.3-1.1-4.1-3.3l-0.9-2.5H102.2z M109.2,146.5
	l-2.1-5.7l-2.1,5.7H109.2z M79.9,133.9c2.7,0,4.1,1.3,4.1,3.7s-1.3,3.7-4.1,3.7h-2.8v-7.4H79.9z M82,149.1c2.9,0.1,5.6-1.1,7.5-3.3
	c1.9-2.1,3-4.8,3-7.7c0.1-2.8-0.8-5.5-2.6-7.6c-1.6-2-4.1-3.2-6.8-3.2H72.3c-3.2,0-4.8,1.4-4.8,4.2v24.1c0,2.8,1.6,4.2,4.8,4.2
	c3.2,0,4.8-1.4,4.8-4.2v-6.7L82,149.1z M33.4,154.3l-0.9,2.5c-0.8,2.2-2.2,3.3-4,3.3c-1.5,0.1-3-0.5-4-1.7c-0.7-0.9-1.1-2-1.2-3.1
	c0-0.9,0.2-1.9,0.6-2.7l10-21.8c1-2.2,2.5-3.3,4.6-3.3c2,0,3.6,1.1,4.6,3.3l10,21.8c0.4,0.9,0.6,1.8,0.6,2.7
	c-0.1,1.1-0.5,2.2-1.2,3.1c-1,1.2-2.5,1.9-4,1.7c-1.9,0-3.3-1.1-4.1-3.3l-0.9-2.5L33.4,154.3z M40.4,146.5l-2.1-5.7l-2.1,5.7H40.4z
	 M17.1,160H4.8c-3.2,0-4.8-1.4-4.8-4.2v-24.2c0-2.8,1.6-4.2,4.8-4.2c3.2,0,4.8,1.4,4.8,4.2v20.8h7.5c2,0,3,1.3,3,3.9
	C20.1,158.7,19.1,160,17.1,160z"/>
<path class="st0" d="M64.5,172.7h148.2l-0.2,0.3l-0.7,0.9l-0.4,0.5c-0.4,0.5-0.7,1-1.1,1.5l-0.4,0.5l-0.7,0.9l-0.5,0.6l-1.1,1.3
	l-0.5,0.6l-0.7,0.8l-0.6,0.7l-1,1.1l-0.5,0.6l-0.7,0.7l-1,1.1l-0.7,0.7l-0.6,0.6l-0.9,0.9H76.7l-0.9-0.8l-0.7-0.6l-0.7-0.7l-1-1.1
	l-0.7-0.7l-0.6-0.6l-0.9-1l-0.7-0.8l-0.7-0.8l-0.5-0.6l-1-1.3l-0.5-0.6l-0.7-0.9l-0.4-0.5c-0.4-0.5-0.7-1-1.1-1.5l-0.4-0.5l-0.7-0.9
	L64.5,172.7z"/>
<path class="st0" d="M96.6,201h84.1l-0.7,0.3l-0.6,0.3l-1.5,0.7l-0.4,0.2l-1.4,0.6l-0.6,0.3l-1.6,0.7l-0.4,0.2l-1.4,0.6l-0.5,0.2
	l-1.7,0.6l-0.5,0.2l-1.5,0.5l-0.4,0.1l-1.8,0.6l-0.5,0.2l-1.6,0.5l-0.3,0.1l-1.8,0.5l-0.5,0.1l-1.9,0.5h-0.1l-1.8,0.4l-0.5,0.1
	l-1.9,0.4l-0.3,0.1l-1.7,0.3l-0.5,0.1l-1.9,0.3h-0.4l-1.8,0.2h-0.4l-2,0.2h-0.4l-1.8,0.1h-0.3l-2,0.1h-0.5h-2.1h-2.1h-0.5l-2-0.1
	h-0.3L132,211h-0.4l-2-0.2h-0.4l-1.8-0.2H127l-1.9-0.3l-0.5-0.1l-1.7-0.3l-0.3-0.1l-1.9-0.4l-0.5-0.1l-1.8-0.4h-0.1l-1.9-0.5
	l-0.5-0.1L114,208l-0.3-0.1l-1.6-0.5l-0.5-0.2l-1.8-0.6l-0.4-0.1l-1.5-0.5l-0.5-0.2l-1.7-0.6l-0.5-0.2l-1.4-0.6l-0.4-0.2l-1.7-0.7
	l-0.6-0.3l-1.4-0.7l-0.4-0.2l-1.5-0.8l-0.6-0.3L96.6,201"/>
</svg>