<?xml version="1.0" encoding="utf-8"?>
<!-- Generator: Adobe Illustrator 21.0.0, SVG Export Plug-In . SVG Version: 6.00 Build 0)  -->
<svg version="1.1" id="Capa_1" xmlns="http://www.w3.org/2000/svg" xmlns:xlink="http://www.w3.org/1999/xlink" x="0px" y="0px"
	 viewBox="0 0 115 115" style="enable-background:new 0 0 115 115;" xml:space="preserve">
<title>close</title>
<g>
	<path d="M105.7,29.4c-0.5,0.4-1,1-1.6,1.3c-11.1,7.4-22.3,14.7-33.4,22c-3.8,2.5-7.6,5-11.4,7.4c-0.6,0.4-1.8,0.4-2.4,0
		c-15.1-9.9-30.1-19.8-45.2-29.7c-1.2-0.8-1.2-1.6-0.6-2.6c1.2-2.3,3.1-3.3,5.7-3.3c9.2,0,18.3,0,27.5,0c18.2,0,36.5,0,54.7,0
		c2.6,0,4.6,0.8,5.9,3.1C105.2,28.2,105.3,28.6,105.7,29.4z"/>
	<path d="M58,90.3c-13.6,0-27.3,0-40.9,0c-2.6,0-4.5-0.9-5.9-3.1c-0.7-1.1-0.7-2,0.6-2.8c11.6-7.3,23.2-14.7,34.9-22.1
		c0.6-0.4,1.8-0.3,2.4,0c2.3,1.3,4.4,2.8,6.6,4.3c1.6,1.1,3.1,1.1,4.7,0c2.1-1.5,4.3-3,6.6-4.3c0.6-0.4,1.8-0.4,2.4,0
		c11.7,7.3,23.3,14.7,34.9,22.1c1.3,0.8,1.3,1.6,0.7,2.8c-1.3,2.2-3.3,3.1-5.9,3.1C85.4,90.3,71.7,90.3,58,90.3z"/>
	<path d="M105.7,78.3C94.9,71.5,84.5,64.8,73.6,58c10.7-7.1,21.3-14,32.1-21.1C105.7,50.8,105.7,64.3,105.7,78.3z"/>
	<path d="M10.5,36.9c10.7,7.1,21.2,14,32,21.1c-10.8,6.8-21.3,13.5-32,20.3C10.5,64.4,10.5,50.8,10.5,36.9z"/>
</g>
</svg>
