<?xml version="1.0" encoding="utf-8"?>
<!-- Generator: Adobe Illustrator 21.0.0, SVG Export Plug-In . SVG Version: 6.00 Build 0)  -->
<svg version="1.2" baseProfile="tiny" id="Capa_1" xmlns="http://www.w3.org/2000/svg" xmlns:xlink="http://www.w3.org/1999/xlink"
	 x="0px" y="0px" viewBox="0 0 831 251" xml:space="preserve">
<g>
	<g>
		<path fill="#73C5F7" d="M517.8,159.8c-37.3,0-70-19.4-71.4-20.2c-3.7-2.2-4.9-6.9-2.7-10.6c2.2-3.7,7-4.9,10.6-2.7
			c0.3,0.2,30.5,18,63.5,18c4.3,0,7.7,3.5,7.7,7.7C525.5,156.3,522.1,159.8,517.8,159.8z"/>
	</g>
	<g>
		<path fill="#73C5F7" d="M450.4,140.7c-1.4,0-2.7-0.4-4-1.1c-0.3-0.2-30.5-18-63.5-18c-32.9,0-60.4,17.7-60.7,17.8
			c-3.6,2.3-8.4,1.3-10.7-2.3c-2.3-3.6-1.3-8.4,2.3-10.7c1.3-0.8,31.6-20.3,69.1-20.3c37.3,0,70,19.4,71.4,20.2
			c3.7,2.2,4.8,6.9,2.7,10.6C455.6,139.4,453,140.7,450.4,140.7z"/>
	</g>
	<g>
		<path fill="#73C5F7" d="M450.4,111.4c-1.4,0-2.7-0.4-4-1.1c-0.3-0.2-30.5-18-63.5-18c-32.8,0-60.4,17.7-60.7,17.8
			c-3.6,2.3-8.4,1.3-10.7-2.3c-2.3-3.6-1.3-8.4,2.3-10.7c1.3-0.8,31.6-20.3,69.1-20.3c37.3,0,70,19.4,71.4,20.2
			c3.7,2.2,4.9,6.9,2.7,10.6C455.6,110.1,453,111.4,450.4,111.4z"/>
	</g>
	<g>
		<path fill="#73C5F7" d="M452.1,175c-1.4,0-2.7-0.4-4-1.1c-0.3-0.2-30.5-18-63.5-18c-32.8,0-60.4,17.7-60.7,17.8
			c-3.6,2.3-8.4,1.3-10.7-2.3c-2.3-3.6-1.3-8.4,2.3-10.7c1.3-0.8,31.6-20.3,69.1-20.3c37.3,0,70,19.4,71.4,20.2
			c3.7,2.2,4.9,6.9,2.7,10.6C457.3,173.7,454.7,175,452.1,175z"/>
	</g>
</g>
</svg>
