<?xml version="1.0" encoding="utf-8"?>
<!-- Generator: Adobe Illustrator 21.0.0, SVG Export Plug-In . SVG Version: 6.00 Build 0)  -->
<svg version="1.1" id="Capa_1" xmlns="http://www.w3.org/2000/svg" xmlns:xlink="http://www.w3.org/1999/xlink" x="0px" y="0px"
	 viewBox="0 0 831 251" style="enable-background:new 0 0 831 251;" xml:space="preserve">
<style type="text/css">
	.st0{fill:none;stroke:#73C5F7;stroke-width:9;stroke-linecap:round;stroke-miterlimit:10;}
	.st1{fill:#73C5F7;}
</style>
<g>
	<g>
		<path class="st0" d="M185.7,60.1"/>
	</g>
	<g>
		<path class="st0" d="M53.4,60.1"/>
	</g>
	<g>
		<path class="st1" d="M450.4,66.1c-1.4,0-2.7-0.4-4-1.1c-0.3-0.2-30.5-18-63.5-18c-32.8,0-60.4,17.7-60.7,17.8
			c-3.6,2.3-8.4,1.3-10.7-2.3c-2.3-3.6-1.3-8.4,2.3-10.7c1.3-0.8,31.6-20.3,69.1-20.3c37.3,0,70,19.4,71.4,20.2
			c3.7,2.2,4.9,6.9,2.7,10.6C455.6,64.8,453,66.1,450.4,66.1z"/>
	</g>
	<g>
		<path class="st1" d="M253.2,85.2c-37.3,0-70-19.4-71.4-20.2c-3.7-2.2-4.8-6.9-2.7-10.6c2.2-3.7,6.9-4.9,10.6-2.7
			c0.3,0.2,30.5,18,63.5,18c32.9,0,60.4-17.7,60.7-17.8c3.6-2.3,8.4-1.3,10.7,2.3c2.3,3.6,1.3,8.4-2.3,10.7
			C321,65.7,290.6,85.2,253.2,85.2z"/>
	</g>
	<g>
		<path class="st1" d="M185.7,97.1c-1.4,0-2.7-0.4-4-1.1c-0.3-0.2-30.5-18-63.5-18c-32.9,0-60.4,17.7-60.7,17.8
			c-3.6,2.3-8.4,1.3-10.7-2.3c-2.3-3.6-1.3-8.4,2.3-10.7c1.3-0.8,31.6-20.3,69.1-20.3c37.3,0,70,19.4,71.4,20.2
			c3.7,2.2,4.8,6.9,2.7,10.6C190.9,95.7,188.3,97.1,185.7,97.1z"/>
	</g>
	<g>
		<path class="st1" d="M450.4,97.1c-1.4,0-2.7-0.4-4-1.1c-0.3-0.2-30.5-18-63.5-18c-32.9,0-60.4,17.7-60.7,17.8
			c-3.6,2.3-8.4,1.3-10.7-2.3c-2.3-3.6-1.3-8.4,2.3-10.7c1.3-0.8,31.6-20.3,69.1-20.3c37.3,0,70,19.4,71.4,20.2
			c3.7,2.2,4.8,6.9,2.7,10.6C455.6,95.7,453,97.1,450.4,97.1z"/>
	</g>
	<g>
		<path class="st1" d="M253.2,116.2c-37.3,0-70-19.4-71.4-20.2c-3.7-2.2-4.9-6.9-2.7-10.6c2.2-3.7,6.9-4.9,10.6-2.7
			c0.3,0.2,30.5,18,63.5,18c32.8,0,60.4-17.7,60.7-17.8c3.6-2.3,8.4-1.3,10.7,2.3c2.3,3.6,1.3,8.4-2.3,10.7
			C321,96.7,290.6,116.2,253.2,116.2z"/>
	</g>
	<g>
		<path class="st1" d="M782.5,116.2c-37.3,0-70-19.4-71.4-20.2c-3.7-2.2-4.9-6.9-2.7-10.6c2.2-3.7,7-4.9,10.6-2.7
			c0.3,0.2,30.5,18,63.5,18c4.3,0,7.7,3.5,7.7,7.7C790.2,112.7,786.7,116.2,782.5,116.2z"/>
	</g>
	<g>
		<path class="st1" d="M120.8,90.2c-37.3,0-70,19.4-71.4,20.2c-3.7,2.2-4.9,6.9-2.7,10.6c2.2,3.7,7,4.9,10.6,2.7
			c0.3-0.2,30.5-18,63.5-18c4.3,0,7.7-3.5,7.7-7.7S125.1,90.2,120.8,90.2z"/>
	</g>
	<g>
		<path class="st1" d="M517.8,116.2c-37.3,0-70-19.4-71.4-20.2c-3.7-2.2-4.9-6.9-2.7-10.6c2.2-3.7,6.9-4.9,10.6-2.7
			c0.3,0.2,30.5,18,63.5,18c32.8,0,60.4-17.7,60.7-17.8c3.6-2.3,8.4-1.3,10.7,2.3c2.3,3.6,1.3,8.4-2.3,10.7
			C585.7,96.7,555.3,116.2,517.8,116.2z"/>
	</g>
	<g>
		<path class="st1" d="M715,97.1c-1.4,0-2.7-0.4-4-1.1c-0.3-0.2-30.5-18-63.5-18c-32.9,0-60.4,17.7-60.7,17.8
			c-3.6,2.3-8.4,1.3-10.7-2.3c-2.3-3.6-1.3-8.4,2.3-10.7c1.3-0.8,31.6-20.3,69.1-20.3c37.3,0,70,19.4,71.4,20.2
			c3.7,2.2,4.8,6.9,2.7,10.6C720.2,95.7,717.6,97.1,715,97.1z"/>
	</g>
	<g>
		<path class="st1" d="M517.8,85.2c-37.3,0-70-19.4-71.4-20.2c-3.7-2.2-4.8-6.9-2.7-10.6c2.2-3.7,6.9-4.9,10.6-2.7
			c0.3,0.2,30.5,18,63.5,18c32.9,0,60.4-17.7,60.7-17.8c3.6-2.3,8.4-1.3,10.7,2.3c2.3,3.6,1.3,8.4-2.3,10.7
			C585.7,65.7,555.3,85.2,517.8,85.2z"/>
	</g>
	<g>
		<path class="st1" d="M715,66.1c-1.4,0-2.7-0.4-4-1.1c-0.3-0.2-30.5-18-63.5-18c-32.8,0-60.4,17.7-60.7,17.8
			c-3.6,2.3-8.4,1.3-10.7-2.3c-2.3-3.6-1.3-8.4,2.3-10.7c1.3-0.8,31.6-20.3,69.1-20.3c37.3,0,70,19.4,71.4,20.2
			c3.7,2.2,4.9,6.9,2.7,10.6C720.2,64.8,717.6,66.1,715,66.1z"/>
	</g>
	<g>
		<path class="st1" d="M452.1,131.4c-1.4,0-2.7-0.4-4-1.1c-0.3-0.2-30.5-18-63.5-18c-32.8,0-60.4,17.7-60.7,17.8
			c-3.6,2.3-8.4,1.3-10.7-2.3c-2.3-3.6-1.3-8.4,2.3-10.7c1.3-0.8,31.6-20.3,69.1-20.3c37.3,0,70,19.4,71.4,20.2
			c3.7,2.2,4.9,6.9,2.7,10.6C457.3,130.1,454.7,131.4,452.1,131.4z"/>
	</g>
	<g>
		<path class="st1" d="M254.9,150.5c-37.3,0-70-19.4-71.4-20.2c-3.7-2.2-4.8-6.9-2.7-10.6c2.2-3.7,6.9-4.9,10.6-2.7
			c0.3,0.2,30.5,18,63.5,18c32.9,0,60.4-17.7,60.7-17.8c3.6-2.3,8.4-1.3,10.7,2.3c2.3,3.6,1.3,8.4-2.3,10.7
			C322.7,131,292.4,150.5,254.9,150.5z"/>
	</g>
	<g>
		<path class="st1" d="M519.5,150.5c-37.3,0-70-19.4-71.4-20.2c-3.7-2.2-4.8-6.9-2.7-10.6c2.2-3.7,6.9-4.9,10.6-2.7
			c0.3,0.2,30.5,18,63.5,18c32.9,0,60.4-17.7,60.7-17.8c3.6-2.3,8.4-1.3,10.7,2.3c2.3,3.6,1.3,8.4-2.3,10.7
			C587.4,131,557,150.5,519.5,150.5z"/>
	</g>
	<g>
		<path class="st1" d="M716.7,131.4c-1.4,0-2.7-0.4-4-1.1c-0.3-0.2-30.5-18-63.5-18c-32.8,0-60.4,17.7-60.7,17.8
			c-3.6,2.3-8.4,1.3-10.7-2.3c-2.3-3.6-1.3-8.4,2.3-10.7c1.3-0.8,31.6-20.3,69.1-20.3c37.3,0,70,19.4,71.4,20.2
			c3.7,2.2,4.9,6.9,2.7,10.6C721.9,130.1,719.4,131.4,716.7,131.4z"/>
	</g>
	<g>
		<path class="st1" d="M452.1,165.8c-1.4,0-2.7-0.4-4-1.1c-0.3-0.2-30.5-18-63.5-18c-32.8,0-60.4,17.7-60.7,17.8
			c-3.6,2.3-8.4,1.3-10.7-2.3c-2.3-3.6-1.3-8.4,2.3-10.7c1.3-0.8,31.6-20.3,69.1-20.3c37.3,0,70,19.4,71.4,20.2
			c3.7,2.2,4.9,6.9,2.7,10.6C457.3,164.4,454.7,165.8,452.1,165.8z"/>
	</g>
	<g>
		<path class="st1" d="M519.5,184.9c-37.3,0-70-19.4-71.4-20.2c-3.7-2.2-4.8-6.9-2.7-10.6c2.2-3.7,6.9-4.9,10.6-2.7
			c0.3,0.2,30.5,18,63.5,18c32.9,0,60.4-17.7,60.7-17.8c3.6-2.3,8.4-1.3,10.7,2.3c2.3,3.6,1.3,8.4-2.3,10.7
			C587.4,165.3,557,184.9,519.5,184.9z"/>
	</g>
	<g>
		<path class="st1" d="M519.5,219.2c-37.3,0-70-19.4-71.4-20.2c-3.7-2.2-4.8-6.9-2.7-10.6c2.2-3.7,6.9-4.9,10.6-2.7
			c0.3,0.2,30.5,18,63.5,18c32.9,0,60.4-17.7,60.7-17.8c3.6-2.3,8.4-1.3,10.7,2.3c2.3,3.6,1.3,8.4-2.3,10.7
			C587.4,199.7,557,219.2,519.5,219.2z"/>
	</g>
</g>
</svg>
