<?xml version="1.0" encoding="utf-8"?>
<!-- Generator: Adobe Illustrator 21.0.0, SVG Export Plug-In . SVG Version: 6.00 Build 0)  -->
<svg version="1.1" id="Capa_1" xmlns="http://www.w3.org/2000/svg" xmlns:xlink="http://www.w3.org/1999/xlink" x="0px" y="0px"
	 viewBox="0 0 136 136" style="enable-background:new 0 0 136 136;" xml:space="preserve">
<style type="text/css">
	.st0{fill:#A64000;}
	.st1{fill:#FFFFFF;}
</style>
<title>sesamo</title>
<circle class="st0" cx="68" cy="68" r="65"/>
<path d="M68,136c-37.6,0-68-30.4-68-68S30.4,0,68,0s68,30.4,68,68C136,105.5,105.5,136,68,136z M68,6C33.8,6,6,33.8,6,68
	s27.8,62,62,62s62-27.8,62-62S102.2,6,68,6z"/>
<g>
	<path d="M106.9,69.7c0.5,21.8-14.5,36.9-32.6,41.8c-8.7,2.3-16.8,0.2-24.5-3.8c-9.3-4.9-16.3-12-20.1-22
		c-2.6-6.8-3.2-13.8-2.5-20.9c1-10.3,4.4-19.6,11.1-27.6c5-6,11.2-10.6,17.9-14.5c3.1-1.8,6.2-3.8,9.3-5.5c0.7-0.4,1.9-0.6,2.5-0.2
		c6.9,4.3,14.1,8.3,20.4,13.4C101,40.1,106.9,53.6,106.9,69.7z M102.9,70.6c-0.1-14.7-4.9-26.4-15-35.8c-5.1-4.7-11.2-7.9-16.8-11.7
		c-3-2-5.4-2.6-8.1,0c-0.7,0.7-1.7,1.1-2.5,1.5c-6.1,3.5-11.9,7.2-16.8,12.4c-7.5,8-11.5,17.3-12.5,28.2c-1.2,13.3,2.2,25,12.7,33.7
		c10.2,8.5,21.6,12.6,34.8,6.8C93.4,99.3,103.4,86.3,102.9,70.6z"/>
	<path class="st1" d="M102.9,70.6c0.5,15.8-9.5,28.7-24.3,35.1c-13.2,5.7-24.5,1.7-34.8-6.8C33.4,90.1,30,78.5,31.2,65.2
		c1-10.8,5-20.2,12.4-28.1c4.8-5.1,10.7-8.9,16.8-12.4c0.9-0.5,1.8-0.9,2.5-1.5c2.8-2.6,5.2-2,8.1,0c5.7,3.8,11.8,7,16.8,11.7
		C98,44.2,102.8,55.9,102.9,70.6z M39.3,75.7c-0.2,0.1-0.3,0.2-0.5,0.3c0.2,5.4,2.4,9.7,7.1,12.6c0.7,0.4,1.4,1.2,1.6,2
		c2.7,7.7,10.3,11.6,17.9,9.1c0.9-0.3,2.1-0.3,3,0c7.7,2.4,15.4-1.6,17.9-9.2c0.2-0.7,0.9-1.5,1.5-1.9c4.7-3,7.1-7.2,7.1-12.8
		c0-0.9,0.4-2.1,0.9-2.8c4.5-5.8,4-13.6-1.3-18.7c-2.8-2.7-3.2-3.4-4-7.1c-0.1-0.4-0.2-0.8-0.4-1.2c-2.3-6.5-7.8-10.1-14.8-9.5
		c-1.5,0.1-2.5-0.2-3.2-1.6c-1-1.7-2.1-3.4-3.2-5.1c-1.3-1.9-2.8-2-4.1,0c-1,1.5-2.1,3-2.8,4.6c-0.8,1.8-2,2.2-3.9,2
		c-8.4-0.7-15.2,5.5-15.3,14c0,1.2-0.6,1.6-1.4,2.1c-7.1,4.4-8.7,13.9-3.7,20.4C38.5,73.7,38.8,74.7,39.3,75.7z"/>
	<path d="M39.3,75.7c-0.5-0.9-0.8-1.9-1.4-2.7c-5.1-6.5-3.4-15.9,3.7-20.4c0.8-0.5,1.4-0.9,1.4-2.1c0.1-8.5,6.9-14.7,15.3-14
		c1.9,0.2,3.1-0.3,3.9-2c0.8-1.6,1.8-3.1,2.8-4.6c1.3-1.9,2.8-1.9,4.1,0c1.1,1.7,2.2,3.3,3.2,5.1c0.8,1.3,1.8,1.7,3.2,1.6
		c7-0.6,12.5,3,14.8,9.5c0.1,0.4,0.3,0.8,0.4,1.2c0.9,3.7,1.2,4.4,4,7.1c5.3,5.1,5.8,12.9,1.3,18.7c-0.6,0.7-0.9,1.9-0.9,2.8
		c-0.1,5.6-2.4,9.8-7.1,12.8c-0.7,0.4-1.3,1.2-1.5,1.9c-2.4,7.7-10.2,11.6-17.9,9.2c-0.9-0.3-2.1-0.3-3,0
		c-7.7,2.5-15.3-1.4-17.9-9.1c-0.3-0.8-0.9-1.6-1.6-2c-4.7-2.9-6.9-7.2-7.1-12.6C39,75.8,39.1,75.7,39.3,75.7z M47,84.1
		c0.3-0.8,0.3-1.8,0.8-2.4c0.6-0.6,1.8-1.3,2.3-1.1c0.6,0.2,1,1.5,1.3,2.3c0.1,0.3-0.2,0.8-0.3,1.2c-1.6,7.2,5,13.7,12,11.9
		c1.4-0.4,1.8-0.9,1.8-2.4c-0.1-18.1,0-36.2,0-54.3c0-0.5,0-0.9,0-1.6c-2.7,2.5-3.7,2.9-6.7,2.6c-5.8-0.5-10.7,3.3-11.3,8.7
		c-0.6,5.9,3.5,10.7,9.5,11.2c1.4,0.1,2.4,0.6,2.4,2c-0.1,1.5-1.2,2.1-2.6,2c-3.5-0.3-6.7-1.5-9.1-4.1c-1.2-1.3-2.2-2.8-3.3-4.2
		c-5.6,2.8-6.6,10.6-1.9,15.4c1.1,1.2,1.5,2.2,1.1,3.8C42.4,77.8,43.9,82.5,47,84.1z M90,56c-1.1,1.4-1.9,2.8-3,3.9
		c-0.4,0.4-1.8,0.4-2.2,0c-0.5-0.5-0.6-1.6-0.5-2.4c0.1-0.6,0.8-1.1,1.1-1.7c2-3.3,2.3-6.7,0.5-10.1s-4.8-5.4-8.6-5.3
		c-3,0.1-5.8,0.3-7.9-2.7c-0.2,0.6-0.2,0.8-0.2,1c0,18.6,0,37.1,0,55.7c0,0.5,0.7,1.3,1.2,1.5c3.6,1.1,6.8,0.4,9.5-2.2
		s3.8-5.8,3-9.5c-0.8-3.5-3-5.8-6.2-7.2c-1.2-0.5-1.8-1.4-1.3-2.7c0.5-1.3,1.7-1.5,2.8-0.9c1.5,0.8,3.1,1.7,4.4,2.8
		c2.5,2,3.7,4.9,4.5,8.2c3.2-2.4,4.4-5.5,3.9-9.3c-0.2-1.6,0.2-2.6,1.3-3.8C96.7,66.6,95.6,59.1,90,56z"/>
	<path class="st1" d="M47,84.1c-3.1-1.6-4.6-6.3-4-8.9c0.4-1.6,0-2.6-1.1-3.8c-4.7-4.7-3.7-12.5,1.9-15.4c1.1,1.4,2.1,2.9,3.3,4.2
		c2.4,2.6,5.6,3.8,9.1,4.1c1.5,0.1,2.6-0.5,2.6-2c0-1.4-1-1.9-2.4-2c-6-0.4-10.1-5.3-9.5-11.2c0.5-5.4,5.5-9.3,11.3-8.7
		c3,0.3,4-0.1,6.7-2.6c0,0.7,0,1.1,0,1.6c0,18.1,0,36.2,0,54.3c0,1.5-0.4,2-1.8,2.4c-7,1.8-13.6-4.7-12-11.9
		c0.1-0.4,0.4-0.9,0.3-1.2c-0.3-0.8-0.7-2.1-1.3-2.3c-0.6-0.2-1.8,0.5-2.3,1.1C47.3,82.3,47.3,83.3,47,84.1z"/>
	<path class="st1" d="M90,56c5.6,3.1,6.7,10.5,2.1,15.3c-1.1,1.2-1.5,2.2-1.3,3.8c0.5,3.7-0.7,6.8-3.9,9.3c-0.8-3.3-2-6.1-4.5-8.2
		c-1.3-1.1-2.9-2-4.4-2.8c-1.1-0.6-2.3-0.4-2.8,0.9s0,2.1,1.3,2.7c3.2,1.4,5.5,3.7,6.2,7.2c0.8,3.7-0.3,6.9-3,9.5s-5.9,3.3-9.5,2.2
		c-0.5-0.2-1.2-1-1.2-1.5c-0.1-18.6,0-37.1,0-55.7c0-0.2,0.1-0.3,0.2-1c2.1,3.1,4.9,2.8,7.9,2.7c3.8-0.1,6.8,1.9,8.6,5.3
		c1.8,3.4,1.6,6.8-0.5,10.1c-0.4,0.6-1,1.1-1.1,1.7c-0.1,0.8,0,1.9,0.5,2.4c0.4,0.4,1.8,0.4,2.2,0C88.1,58.8,89,57.4,90,56z"/>
</g>
</svg>
