<svg id="Capa_1" data-name="Capa 1" xmlns="http://www.w3.org/2000/svg" viewBox="0 0 136 136"><defs><style>.cls-1,.cls-4{fill:#fff;}.cls-1{stroke:#000;stroke-linejoin:round;stroke-width:5px;}.cls-2{fill:#009aff;}.cls-3{fill:#0064b4;}</style></defs><title>pescado</title><path class="cls-1" d="M12.41,60.14"/><circle class="cls-2" cx="68" cy="68" r="65"/><path d="M68,136a68,68,0,1,1,68-68A68,68,0,0,1,68,136ZM68,6a62,62,0,1,0,62,62A62,62,0,0,0,68,6Z"/><path class="cls-3" d="M76.5,48.5h0l9.17-13Z"/><path class="cls-3" d="M91.14,32.35c0,.08.1.15.14.23a2,2,0,0,1,.22.92v-.66Z"/><path class="cls-3" d="M91.14,32.35c0,.08.1.15.14.23a2,2,0,0,1,.22.92v-.66Z"/><path class="cls-4" d="M95.68,57.75A49.11,49.11,0,0,1,51.89,84.56c-.79,0-1.58,0-2.37-.06l-.07-.06q0-.76,0-1.52A48.86,48.86,0,0,1,54.3,61.59,48.23,48.23,0,0,1,60,52.51,49.05,49.05,0,0,1,77,38.77,24.57,24.57,0,0,0,95.68,57.75Z"/><path d="M51.89,86.61c-.9,0-1.71,0-2.47-.06a2,2,0,0,1-1-.32,2.37,2.37,0,0,1-.28-.21,2,2,0,0,1-.73-1.5q0-.79,0-1.59A51.25,51.25,0,0,1,68.94,41.18a51.31,51.31,0,0,1,7.14-4.24A2,2,0,0,1,79,38.36,22.5,22.5,0,0,0,96.12,55.75a2,2,0,0,1,1.38,2.93,51.28,51.28,0,0,1-25,23.58A50.79,50.79,0,0,1,51.89,86.61Zm-3.55-.44h0Zm0,0h0Zm3.14-3.65h.41A47,47,0,0,0,80.6,72.76a47.5,47.5,0,0,0,8.31-8.21A46.93,46.93,0,0,0,92.65,59a26.62,26.62,0,0,1-17-17.26,47.85,47.85,0,0,0-4.33,2.73,47,47,0,0,0-9.72,9.26,46.94,46.94,0,0,0-10.1,28.74Z"/><path class="cls-4" d="M101,35.42a48.86,48.86,0,0,1-5.37,22.34,24.57,24.57,0,0,1-18.7-19,48.86,48.86,0,0,1,21.61-5c.82,0,1.62,0,2.43.07Q101,34.63,101,35.42Z"/><path d="M95.68,59.8a2.05,2.05,0,0,1-.44,0A26.6,26.6,0,0,1,75,39.19a2,2,0,0,1,1.1-2.25,50.62,50.62,0,0,1,22.51-5.21c1,0,1.78,0,2.56.07a2,2,0,0,1,1.92,2q0,.82,0,1.64A50.55,50.55,0,0,1,97.5,58.69,2,2,0,0,1,95.68,59.8ZM79.36,39.92A22.51,22.51,0,0,0,94.57,55.35,46.48,46.48,0,0,0,99,35.83h-.41A46.57,46.57,0,0,0,79.36,39.92Z"/><path class="cls-4" d="M52.71,92.75a12.14,12.14,0,0,1-1.35,5.59,12.41,12.41,0,0,1-3.1,3.87L31,84.92a12.27,12.27,0,0,1,17.68-1.29v0h.07A12.23,12.23,0,0,1,52.71,92.75Z"/><path d="M48.26,104.27a2,2,0,0,1-1.45-.6l-17.3-17.3a2,2,0,0,1-.13-2.75A14.32,14.32,0,0,1,50,82.11l.07.06a14.34,14.34,0,0,1,4.67,10.58,14.09,14.09,0,0,1-1.58,6.54,14.37,14.37,0,0,1-3.61,4.51A2,2,0,0,1,48.26,104.27ZM33.84,84.91,48.27,99.33a10.33,10.33,0,0,0,1.27-1.92,10,10,0,0,0,1.13-4.66,10.24,10.24,0,0,0-3.11-7.34,2,2,0,0,1-.53-.48,10.24,10.24,0,0,0-13.18,0Zm14.86-3.27h0Z"/><path class="cls-4" d="M95.31,75.55a12.22,12.22,0,0,1-3.6,8.68l-9.85-9.85a49.55,49.55,0,0,0,8.67-8.56A12.26,12.26,0,0,1,95.31,75.55Z"/><path d="M91.7,86.28a2,2,0,0,1-1.45-.6L80.4,75.83a2,2,0,0,1,.2-3.07,47.49,47.49,0,0,0,8.31-8.21,2,2,0,0,1,2.86-.35,14.32,14.32,0,0,1,1.38,21.49A2,2,0,0,1,91.7,86.28ZM84.91,74.54l6.65,6.65a10.24,10.24,0,0,0-.85-12.4A51.64,51.64,0,0,1,84.91,74.54Z"/><path class="cls-4" d="M70.13,42.84A49.18,49.18,0,0,0,60,52.51l-8.08-8.08a12.28,12.28,0,0,1,18.23-1.58Z"/><path d="M60,54.56a2,2,0,0,1-1.45-.6l-8.08-8.08a2,2,0,0,1-.19-2.68,14.43,14.43,0,0,1,11.47-5.73,14.27,14.27,0,0,1,9.81,3.89,2,2,0,0,1-.22,3.16,47,47,0,0,0-9.73,9.26,2,2,0,0,1-1.49.78ZM54.71,44.34l5.13,5.13a51.13,51.13,0,0,1,6.88-6.61,10.24,10.24,0,0,0-12,1.48Z"/></svg>