<?xml version="1.0" encoding="utf-8"?>
<!-- Generator: Adobe Illustrator 21.0.0, SVG Export Plug-In . SVG Version: 6.00 Build 0)  -->
<svg version="1.1" id="Capa_1" xmlns="http://www.w3.org/2000/svg" xmlns:xlink="http://www.w3.org/1999/xlink" x="0px" y="0px"
	 viewBox="0 0 115 115" style="enable-background:new 0 0 115 115;" xml:space="preserve">
<title>close</title>
<g>
	<path d="M89.2,57.7c0,13,0,26.1,0,39.1c0,7.4-3.7,11.1-11,11.1c-13.8,0-27.6,0-41.4,0c-7.3,0-11-3.7-11-11.1c0-26.2,0-52.3,0-78.5
		c0-7.5,3.7-11.2,11.1-11.2c13.7,0,27.4,0.1,41.2-0.1c6.1-0.1,11.4,3.6,11.2,11.3C89,31.5,89.2,44.6,89.2,57.7z M33.3,54.8
		c0,9.7,0,19.5,0,29.2c0,4.9,2.5,7.4,7.3,7.4c11.2,0,22.5,0,33.7,0c5,0,7.4-2.5,7.4-7.5c0-19.4,0-38.8,0-58.2c0-5.2-2.3-7.5-7.5-7.6
		c-11.1,0-22.2,0-33.3,0c-5.4,0-7.6,2.3-7.6,7.7C33.2,35.5,33.3,45.2,33.3,54.8z M57.7,101.3c1.4,0,2.2-1.1,2.3-2.5
		c0-1.5-1.1-2.7-2.5-2.4c-1,0.2-2.2,1.4-2.4,2.4C54.8,100.1,55.7,101.3,57.7,101.3z"/>
</g>
</svg>
