<svg id="Capa_1" data-name="Capa 1" xmlns="http://www.w3.org/2000/svg" viewBox="0 0 136 136"><defs><style>.cls-1{fill:#ff5600;}.cls-2{fill:#fff;}</style></defs><title>sesamo</title><circle class="cls-1" cx="68" cy="68" r="65"/><path d="M100.5,162.5a68,68,0,1,1,68-68A68.08,68.08,0,0,1,100.5,162.5Zm0-130a62,62,0,1,0,62,62A62.07,62.07,0,0,0,100.5,32.5Z" transform="translate(-32.5 -26.5)"/><path class="cls-2" d="M118,124.5a16.5,16.5,0,0,1-33,0C85,112,101.5,101,101.5,101S118,112,118,124.5Z" transform="translate(-32.5 -26.5)"/><path d="M101.5,143A18.52,18.52,0,0,1,83,124.5c0-13.42,16.68-24.69,17.39-25.16l1.11-.74,1.11.74c.71.47,17.39,11.75,17.39,25.16A18.52,18.52,0,0,1,101.5,143Zm0-39.54C97.93,106.11,87,115,87,124.5a14.5,14.5,0,0,0,29,0C116,115,105.07,106.11,101.5,103.46Z" transform="translate(-32.5 -26.5)"/><path class="cls-2" d="M120.62,65.11A16.5,16.5,0,1,1,135.44,94.6C124.27,100.21,107,90.41,107,90.41S109.45,70.73,120.62,65.11Z" transform="translate(-32.5 -26.5)"/><path d="M127.32,98.33c-10.25,0-20.71-5.86-21.28-6.19l-1.16-.66.16-1.32c.1-.85,2.69-20.81,14.67-26.84a18.5,18.5,0,0,1,16.62,33.06A19.93,19.93,0,0,1,127.32,98.33Zm-18.09-9c4,2,16.84,7.77,25.31,3.51a14.5,14.5,0,1,0-13-25.91h0C113,71.16,110,84.93,109.23,89.31Z" transform="translate(-32.5 -26.5)"/><path class="cls-2" d="M66.12,92.38a16.5,16.5,0,1,1,17.39-28c10.62,6.59,11.28,26.41,11.28,26.41S76.74,99,66.12,92.38Z" transform="translate(-32.5 -26.5)"/><path d="M76.48,96.93a21.49,21.49,0,0,1-11.42-2.86h0a18.5,18.5,0,1,1,19.5-31.45c11.4,7.07,12.19,27.19,12.22,28l0,1.33-1.21.55C95.07,92.8,85.87,96.93,76.48,96.93ZM74.84,63.86a14.5,14.5,0,0,0-7.67,26.82h0c8.08,5,21.39.4,25.52-1.23C92.32,85,90.51,71,82.46,66A14.42,14.42,0,0,0,74.84,63.86Z" transform="translate(-32.5 -26.5)"/></svg>