<svg id="Capa_1" data-name="Capa 1"
    xmlns="http://www.w3.org/2000/svg" >
    <defs>
        <style>.cls-1{fill:#fff;}</style>
    </defs>
    <title>star-empty</title>
    <path class="cls-1" d="M125.91,78.32l13.22,26.24,3.31,6.57,7.29,1,29.11,4L158,136.8,152.73,142l1.3,7.24,5.2,28.92-26.12-13.46-6.54-3.37-6.49,3.48L94.2,178.67l4.73-29,1.19-7.26-5.31-5.09L73.6,117l29-4.46,7.27-1.12,3.2-6.63,12.79-26.45m-.26-31.63-25.14,52-57.08,8.77,41.68,40-9.3,57,50.9-27.29L178,203.59l-10.22-56.84,41-40.64-57.22-7.84-26-51.58Z" transform="translate(-43.43 -46.69)"/>
</svg>