<svg id="Capa_1" data-name="Capa 1"
    xmlns="http://www.w3.org/2000/svg" viewBox="0 0 147.5 26.32">
    <defs>
        <style>.cls-1{fill:cyan;}</style>
    </defs>
    <title>stars-2</title>
    <path class="cls-1" d="M24.77,8.77l-3.36,6.81-7.51,1.09A1.65,1.65,0,0,0,13,19.48l5.43,5.29-1.29,7.48A1.64,1.64,0,0,0,19.53,34l6.72-3.53L33,34a1.65,1.65,0,0,0,2.39-1.73l-1.29-7.48,5.43-5.29a1.65,1.65,0,0,0-.91-2.81l-7.51-1.09L27.73,8.77a1.65,1.65,0,0,0-3,0Z" transform="translate(-12.5 -7.86)"/>
    <path class="cls-1" d="M54.77,8.77l-3.36,6.81-7.51,1.09A1.65,1.65,0,0,0,43,19.48l5.43,5.29-1.29,7.48A1.64,1.64,0,0,0,49.53,34l6.72-3.53L63,34a1.65,1.65,0,0,0,2.39-1.73l-1.29-7.48,5.43-5.29a1.65,1.65,0,0,0-.91-2.81l-7.51-1.09L57.73,8.77a1.65,1.65,0,0,0-3,0Z" transform="translate(-12.5 -7.86)"/>
    <path class="cls-1" d="M86.25,10.3l3,6.16.46.94,1,.15,6.8,1-4.92,4.79-.75.73.18,1,1.16,6.77-6.08-3.2-.93-.49-.93.49-6.08,3.2,1.16-6.77.18-1-.75-.73-4.92-4.79,6.8-1,1-.15.46-.94,3-6.16m0-2.45a1.62,1.62,0,0,0-1.47.92l-3.36,6.81-7.51,1.09A1.65,1.65,0,0,0,73,19.48l5.43,5.29-1.29,7.48a1.65,1.65,0,0,0,1.62,1.93,1.62,1.62,0,0,0,.76-.19l6.72-3.53L93,34a1.63,1.63,0,0,0,.76.19,1.65,1.65,0,0,0,1.62-1.92l-1.29-7.48,5.43-5.29a1.65,1.65,0,0,0-.91-2.81l-7.51-1.09L87.73,8.77a1.63,1.63,0,0,0-1.48-.92Z" transform="translate(-12.5 -7.86)"/>
    <path class="cls-1" d="M116.25,10.3l3,6.16.46.94,1,.15,6.8,1-4.92,4.79-.75.73.18,1,1.16,6.77-6.08-3.2-.93-.49-.93.49-6.08,3.2,1.16-6.77.18-1-.75-.73-4.92-4.79,6.8-1,1-.15.46-.94,3-6.16m0-2.45a1.62,1.62,0,0,0-1.47.92l-3.36,6.81-7.51,1.09a1.65,1.65,0,0,0-.91,2.81l5.43,5.29-1.29,7.48a1.65,1.65,0,0,0,1.62,1.93,1.62,1.62,0,0,0,.76-.19l6.72-3.53L123,34a1.63,1.63,0,0,0,.76.19,1.65,1.65,0,0,0,1.62-1.92l-1.29-7.48,5.43-5.29a1.65,1.65,0,0,0-.91-2.81l-7.51-1.09-3.36-6.81a1.63,1.63,0,0,0-1.48-.92Z" transform="translate(-12.5 -7.86)"/>
    <path class="cls-1" d="M146.25,10.3l3,6.16.46.94,1,.15,6.8,1-4.92,4.79-.75.73.18,1,1.16,6.77-6.08-3.2-.93-.49-.93.49-6.08,3.2,1.16-6.77.18-1-.75-.73-4.92-4.79,6.8-1,1-.15.46-.94,3-6.16m0-2.45a1.62,1.62,0,0,0-1.47.92l-3.36,6.81-7.51,1.09a1.65,1.65,0,0,0-.91,2.81l5.43,5.29-1.29,7.48a1.65,1.65,0,0,0,1.62,1.93,1.62,1.62,0,0,0,.76-.19l6.72-3.53L153,34a1.63,1.63,0,0,0,.76.19,1.65,1.65,0,0,0,1.62-1.92l-1.29-7.48,5.43-5.29a1.65,1.65,0,0,0-.91-2.81l-7.51-1.09-3.36-6.81a1.63,1.63,0,0,0-1.48-.92Z" transform="translate(-12.5 -7.86)"/>
</svg>