<svg id="Capa_1" data-name="Capa 1" xmlns="http://www.w3.org/2000/svg" viewBox="0 0 136 136"><defs><style>.cls-1{fill:#0f00b9;}.cls-2{fill:#fff;}</style></defs><title>sulfitos</title><circle class="cls-1" cx="68" cy="68" r="65"/><path d="M100.5,162.5a68,68,0,1,1,68-68A68.08,68.08,0,0,1,100.5,162.5Zm0-130a62,62,0,1,0,62,62A62.07,62.07,0,0,0,100.5,32.5Z" transform="translate(-32.5 -26.5)"/><path class="cls-2" d="M82.69,133.59A12.39,12.39,0,0,1,71.45,116L86.11,84.4a21.43,21.43,0,0,0,2-9v-23h25.79v23a21.43,21.43,0,0,0,2,9L130.55,116a12.39,12.39,0,0,1-11.24,17.61Z" transform="translate(-32.5 -26.5)"/><path d="M119.31,135.5H82.69a14.3,14.3,0,0,1-13-20.32L84.38,83.59a19.64,19.64,0,0,0,1.82-8.22V50.5H115.8V75.37a19.65,19.65,0,0,0,1.81,8.22l14.66,31.58a14.3,14.3,0,0,1-13,20.32ZM90,54.32V75.37a23.49,23.49,0,0,1-2.17,9.83L73.18,116.79a10.48,10.48,0,0,0,9.5,14.89h36.63a10.48,10.48,0,0,0,9.5-14.89L114.15,85.2A23.51,23.51,0,0,1,112,75.37V54.32Z" transform="translate(-32.5 -26.5)"/><path d="M80.3,115.1l1.53-3.43a10.38,10.38,0,0,0,5.43,1.62c1.93,0,2.68-.54,2.68-1.34,0-2.61-9.36-.71-9.36-6.82,0-2.94,2.4-5.34,7.29-5.34a12.33,12.33,0,0,1,6,1.44l-1.43,3.46a9.74,9.74,0,0,0-4.56-1.27c-2,0-2.66.66-2.66,1.48,0,2.52,9.34.64,9.34,6.7,0,2.87-2.4,5.31-7.29,5.31A13,13,0,0,1,80.3,115.1Z" transform="translate(-32.5 -26.5)"/><path d="M95.81,108.35c0-4.94,3.88-8.56,9.15-8.56s9.15,3.62,9.15,8.56-3.88,8.56-9.15,8.56S95.81,113.29,95.81,108.35Zm13.59,0a4.45,4.45,0,1,0-4.45,4.7A4.41,4.41,0,0,0,109.41,108.35Z" transform="translate(-32.5 -26.5)"/><path d="M124.13,117.63v2.87h-8.79v-2.27l4-3.67c.75-.71.86-1.13.86-1.5,0-.53-.36-.86-1.07-.86a1.8,1.8,0,0,0-1.61,1l-2.79-1.39a5,5,0,0,1,4.75-2.54c2.6,0,4.43,1.35,4.43,3.43,0,1.08-.28,2.05-1.88,3.49l-1.57,1.43Z" transform="translate(-32.5 -26.5)"/></svg>