<svg id="Capa_1" data-name="Capa 1"
    xmlns="http://www.w3.org/2000/svg" viewBox="0 0 180.83 180.83">
    <defs>
        <style>.cls-1{fill:#fff;}</style>
    </defs>
    <title>whatsapp-logo</title>
    <path class="cls-1" d="M194.75,62a89.64,89.64,0,0,0-141,108.14L41,216.57,88.51,204.1A89.34,89.34,0,0,0,131.34,215h0c49.37,0,90.46-40.2,90.46-89.61C221.83,101.46,211.66,79,194.75,62ZM131.38,199.9a74.35,74.35,0,0,1-37.94-10.37l-2.7-1.61L62.55,195.3l7.51-27.49L68.29,165A74.49,74.49,0,0,1,184.05,72.72c14,14.09,22.68,32.78,22.64,52.68C206.7,166.48,172.43,199.9,131.38,199.9Zm40.85-55.78c-2.22-1.13-13.24-6.54-15.3-7.27s-3.55-1.13-5,1.13-5.77,7.27-7.1,8.8-2.62,1.7-4.84.57c-13.16-6.58-21.8-11.75-30.47-26.64-2.3-4,2.3-3.67,6.58-12.23a4.15,4.15,0,0,0-.2-3.92c-.57-1.13-5-12.15-6.9-16.63s-3.67-3.75-5-3.83S101.1,84,99.61,84a8.29,8.29,0,0,0-6,2.79c-2.06,2.26-7.83,7.67-7.83,18.69s8,21.68,9.12,23.17,15.78,24.1,38.27,33.83c14.21,6.14,19.78,6.66,26.88,5.61,4.32-.65,13.24-5.41,15.1-10.66s1.86-9.73,1.29-10.66S174.44,145.21,172.22,144.12Z" transform="translate(-41 -35.74)"/>
</svg>